<svg width="32" height="12" viewBox="0 0 32 12" fill="none" xmlns="http://www.w3.org/2000/svg">
<path d="M12.1716 10.9493L12.1629 10.9475L12.1355 10.9405C11.9753 10.8992 11.8163 10.8568 11.6587 10.8133C9.76402 10.2856 7.99334 9.66571 6.37609 8.96388C3.51195 7.71127 0.477295 5.85248 0.477295 3.56312C0.477295 1.85485 3.54432 0.500133 7.24616 0.500133C8.27524 0.49777 9.29222 0.604181 10.2215 0.811452C11.1507 1.01872 11.9683 1.32152 12.6134 1.69732C13.2587 1.32144 14.0765 1.0186 15.006 0.811325C15.9355 0.604051 16.9527 0.497683 17.982 0.500133C21.6826 0.500133 24.7496 1.85485 24.7496 3.56312C24.7496 5.85306 21.7149 7.71185 18.8508 8.9633C17.2336 9.66515 15.4629 10.2851 13.5682 10.8128C13.4106 10.8564 13.2516 10.899 13.0914 10.9405L13.064 10.9475L13.0553 10.9499L13.0516 10.9504C12.9166 10.984 12.7662 11.0015 12.6134 11.0015C12.4607 11.0015 12.3103 10.984 12.1753 10.9504L12.1716 10.9493Z" fill="white"/>
<path d="M23.1688 9.98496L26.5723 6.8678H24.2251V4.85081L20.7042 7.96797H23.1688V9.98496ZM23.6382 11.0851C22.5559 11.0851 21.5388 10.9889 20.5869 10.7963C19.6349 10.6038 18.8069 10.3425 18.1027 10.0125C17.3986 9.68241 16.8411 9.29429 16.4304 8.84811C16.0196 8.40193 15.8142 7.92519 15.8142 7.41789C15.8142 6.91058 16.0196 6.43384 16.4304 5.98766C16.8411 5.54148 17.3986 5.15336 18.1027 4.82331C18.8069 4.49326 19.6349 4.23197 20.5869 4.03944C21.5388 3.84691 22.5559 3.75064 23.6382 3.75064C24.7206 3.75064 25.7377 3.84691 26.6896 4.03944C27.6415 4.23197 28.4696 4.49326 29.1738 4.82331C29.8779 5.15336 30.4354 5.54148 30.8461 5.98766C31.2569 6.43384 31.4623 6.91058 31.4623 7.41789C31.4623 7.92519 31.2569 8.40193 30.8461 8.84811C30.4354 9.29429 29.8779 9.68241 29.1738 10.0125C28.4696 10.3425 27.6415 10.6038 26.6896 10.7963C25.7377 10.9889 24.7206 11.0851 23.6382 11.0851Z" fill="#894189"/>
<path d="M23.5671 9.75157L26.6612 6.91779H24.5273V5.08417L21.3266 7.91795H23.5671V9.75157ZM23.9939 10.7517C23.0099 10.7517 22.0853 10.6642 21.2199 10.4892C20.3545 10.3142 19.6017 10.0766 18.9616 9.77658C18.3214 9.47653 17.8147 9.1237 17.4412 8.71808C17.0678 8.31246 16.8811 7.87906 16.8811 7.41787C16.8811 6.95669 17.0678 6.52329 17.4412 6.11767C17.8147 5.71205 18.3214 5.35922 18.9616 5.05917C19.6017 4.75912 20.3545 4.52158 21.2199 4.34656C22.0853 4.17153 23.0099 4.08401 23.9939 4.08401C24.9778 4.08401 25.9025 4.17153 26.7678 4.34656C27.6332 4.52158 28.386 4.75912 29.0261 5.05917C29.6663 5.35922 30.1731 5.71205 30.5465 6.11767C30.9199 6.52329 31.1066 6.95669 31.1066 7.41787C31.1066 7.87906 30.9199 8.31246 30.5465 8.71808C30.1731 9.1237 29.6663 9.47653 29.0261 9.77658C28.386 10.0766 27.6332 10.3142 26.7678 10.4892C25.9025 10.6642 24.9778 10.7517 23.9939 10.7517Z" fill="white"/>
</svg>
