<svg width="22" height="26" viewBox="0 0 22 26" fill="none" xmlns="http://www.w3.org/2000/svg">
<path d="M9.59056 21.9517H11.4349V20.3529C12.3132 20.1611 13.0685 19.7454 13.7008 19.1059C14.3332 18.4664 14.6493 17.5178 14.6493 16.2601C14.6493 15.3647 14.4385 14.544 14.017 13.7979C13.5954 13.0518 12.7523 12.4017 11.4876 11.8474C10.4337 11.4211 9.70474 11.048 9.30074 10.7283C8.89674 10.4085 8.69474 9.97154 8.69474 9.41729C8.69474 8.86305 8.85722 8.42605 9.18217 8.1063C9.50713 7.78654 9.977 7.62667 10.5918 7.62667C11.1539 7.62667 11.593 7.79187 11.9092 8.12229C12.2253 8.4527 12.4537 8.86305 12.5942 9.35334L14.2805 8.52198C14.0872 7.77588 13.7315 7.12571 13.2134 6.57147C12.6952 6.01723 12.1199 5.70813 11.4876 5.64418V4.04541H9.64326V5.64418C8.765 5.87867 8.07996 6.34764 7.58814 7.05111C7.09631 7.75457 6.8504 8.5433 6.8504 9.41729C6.8504 10.4192 7.09192 11.2292 7.57496 11.8474C8.05801 12.4656 8.8177 12.9986 9.85404 13.4462C10.9606 13.9365 11.7291 14.3735 12.1595 14.7572C12.5898 15.1409 12.805 15.6419 12.805 16.2601C12.805 16.9635 12.5986 17.4805 12.1858 17.8109C11.773 18.1413 11.2768 18.3065 10.6972 18.3065C10.1175 18.3065 9.60374 18.088 9.15583 17.651C8.70792 17.214 8.37857 16.5585 8.16779 15.6845L6.42884 16.5159C6.67475 17.5391 7.05679 18.3651 7.57496 18.994C8.09314 19.6228 8.765 20.0545 9.59056 20.289V21.9517ZM10.5391 25.7888C9.08118 25.7888 7.71109 25.453 6.42884 24.7815C5.14658 24.11 4.0312 23.1987 3.08268 22.0476C2.13416 20.8965 1.38325 19.5429 0.829953 17.9867C0.276651 16.4306 0 14.7679 0 12.9986C0 11.2292 0.276651 9.56651 0.829953 8.01037C1.38325 6.45423 2.13416 5.1006 3.08268 3.94948C4.0312 2.79836 5.14658 1.88706 6.42884 1.21557C7.71109 0.544086 9.08118 0.208344 10.5391 0.208344C11.997 0.208344 13.3671 0.544086 14.6493 1.21557C15.9316 1.88706 17.047 2.79836 17.9955 3.94948C18.944 5.1006 19.6949 6.45423 20.2482 8.01037C20.8015 9.56651 21.0782 11.2292 21.0782 12.9986C21.0782 14.7679 20.8015 16.4306 20.2482 17.9867C19.6949 19.5429 18.944 20.8965 17.9955 22.0476C17.047 23.1987 15.9316 24.11 14.6493 24.7815C13.3671 25.453 11.997 25.7888 10.5391 25.7888Z" fill="white"/>
</svg>
